<?xml version="1.0" encoding="UTF-8" standalone="no"?>
<!DOCTYPE svg PUBLIC "-//W3C//DTD SVG 1.1//EN"
 "http://www.w3.org/Graphics/SVG/1.1/DTD/svg11.dtd">
<!-- Generated by graphviz version 2.43.0 (0)
 -->
<!-- Title: %3 Pages: 1 -->
<svg width="527pt" height="332pt"
 viewBox="0.00 0.00 527.00 332.00" xmlns="http://www.w3.org/2000/svg" xmlns:xlink="http://www.w3.org/1999/xlink">
<g id="graph0" class="graph" transform="scale(1 1) rotate(0) translate(4 328)">
<title>%3</title>
<polygon fill="white" stroke="transparent" points="-4,4 -4,-328 523,-328 523,4 -4,4"/>
<!-- syntax -->
<g id="node1" class="node">
<title>syntax</title>
<ellipse fill="none" stroke="black" cx="377.54" cy="-306" rx="34" ry="18"/>
<text text-anchor="middle" x="377.54" y="-302.3" font-family="Times,serif" font-size="14.00">syntax</text>
</g>
<!-- interpolation -->
<g id="node2" class="node">
<title>interpolation</title>
<ellipse fill="none" stroke="black" cx="278.54" cy="-162" rx="56" ry="18"/>
<text text-anchor="middle" x="278.54" y="-158.3" font-family="Times,serif" font-size="14.00">interpolation</text>
</g>
<!-- syntax&#45;&gt;interpolation -->
<g id="edge1" class="edge">
<title>syntax&#45;&gt;interpolation</title>
<path fill="none" stroke="black" d="M371.32,-288.3C363.92,-269.66 350.44,-239.09 333.54,-216 325.66,-205.21 315.45,-194.71 305.98,-185.93"/>
<polygon fill="black" stroke="black" points="308.04,-183.08 298.27,-179 303.37,-188.28 308.04,-183.08"/>
</g>
<!-- semantics -->
<g id="node3" class="node">
<title>semantics</title>
<ellipse fill="none" stroke="black" cx="278.54" cy="-234" rx="46.29" ry="18"/>
<text text-anchor="middle" x="278.54" y="-230.3" font-family="Times,serif" font-size="14.00">semantics</text>
</g>
<!-- syntax&#45;&gt;semantics -->
<g id="edge2" class="edge">
<title>syntax&#45;&gt;semantics</title>
<path fill="none" stroke="black" d="M357.99,-291.17C343.82,-281.15 324.41,-267.43 308.32,-256.05"/>
<polygon fill="black" stroke="black" points="309.96,-252.93 299.78,-250.01 305.92,-258.64 309.96,-252.93"/>
</g>
<!-- completeness -->
<g id="node4" class="node">
<title>completeness</title>
<ellipse fill="none" stroke="black" cx="286.54" cy="-18" rx="58.5" ry="18"/>
<text text-anchor="middle" x="286.54" y="-14.3" font-family="Times,serif" font-size="14.00">completeness</text>
</g>
<!-- syntax&#45;&gt;completeness -->
<g id="edge3" class="edge">
<title>syntax&#45;&gt;completeness</title>
<path fill="none" stroke="black" d="M410.54,-301.22C440.48,-295.86 483,-282.94 503.54,-252 530.1,-212.02 515.83,-190.4 503.54,-144 494.12,-108.4 491.34,-94.95 462.54,-72 430.72,-46.64 386.94,-33.4 351,-26.49"/>
<polygon fill="black" stroke="black" points="351.55,-23.03 341.09,-24.7 350.31,-29.92 351.55,-23.03"/>
</g>
<!-- tableau -->
<g id="node5" class="node">
<title>tableau</title>
<ellipse fill="none" stroke="black" cx="167.54" cy="-162" rx="36.5" ry="18"/>
<text text-anchor="middle" x="167.54" y="-158.3" font-family="Times,serif" font-size="14.00">tableau</text>
</g>
<!-- syntax&#45;&gt;tableau -->
<g id="edge4" class="edge">
<title>syntax&#45;&gt;tableau</title>
<path fill="none" stroke="black" d="M345.02,-300.32C311.57,-294.12 259.44,-280.46 223.54,-252 202.74,-235.51 187.5,-209.03 178.22,-189.24"/>
<polygon fill="black" stroke="black" points="181.3,-187.56 174.02,-179.86 174.91,-190.41 181.3,-187.56"/>
</g>
<!-- soundness -->
<g id="node6" class="node">
<title>soundness</title>
<ellipse fill="none" stroke="black" cx="406.54" cy="-90" rx="47" ry="18"/>
<text text-anchor="middle" x="406.54" y="-86.3" font-family="Times,serif" font-size="14.00">soundness</text>
</g>
<!-- syntax&#45;&gt;soundness -->
<g id="edge5" class="edge">
<title>syntax&#45;&gt;soundness</title>
<path fill="none" stroke="black" d="M408.88,-298.54C433.64,-291.61 466.6,-277.91 482.54,-252 507.7,-211.12 504.75,-186.56 482.54,-144 474.73,-129.03 460.54,-117.42 446.52,-108.94"/>
<polygon fill="black" stroke="black" points="447.83,-105.66 437.4,-103.81 444.4,-111.76 447.83,-105.66"/>
</g>
<!-- modelgraphs -->
<g id="node7" class="node">
<title>modelgraphs</title>
<ellipse fill="none" stroke="black" cx="56.54" cy="-162" rx="56.59" ry="18"/>
<text text-anchor="middle" x="56.54" y="-158.3" font-family="Times,serif" font-size="14.00">modelgraphs</text>
</g>
<!-- syntax&#45;&gt;modelgraphs -->
<g id="edge6" class="edge">
<title>syntax&#45;&gt;modelgraphs</title>
<path fill="none" stroke="black" d="M346.06,-299.19C308.02,-291.48 242.66,-275.98 190.54,-252 151.17,-233.88 110.28,-205.02 84.19,-185.1"/>
<polygon fill="black" stroke="black" points="86.32,-182.32 76.26,-178.97 82.04,-187.86 86.32,-182.32"/>
</g>
<!-- examples -->
<g id="node8" class="node">
<title>examples</title>
<ellipse fill="none" stroke="black" cx="396.54" cy="-162" rx="44.39" ry="18"/>
<text text-anchor="middle" x="396.54" y="-158.3" font-family="Times,serif" font-size="14.00">examples</text>
</g>
<!-- syntax&#45;&gt;examples -->
<g id="edge7" class="edge">
<title>syntax&#45;&gt;examples</title>
<path fill="none" stroke="black" d="M379.84,-287.87C383.08,-263.67 389.02,-219.21 392.88,-190.39"/>
<polygon fill="black" stroke="black" points="396.39,-190.57 394.25,-180.19 389.45,-189.64 396.39,-190.57"/>
</g>
<!-- tableau&#45;examples -->
<g id="node9" class="node">
<title>tableau&#45;examples</title>
<ellipse fill="none" stroke="black" cx="268.54" cy="-90" rx="73" ry="18"/>
<text text-anchor="middle" x="268.54" y="-86.3" font-family="Times,serif" font-size="14.00">tableau&#45;examples</text>
</g>
<!-- syntax&#45;&gt;tableau&#45;examples -->
<g id="edge8" class="edge">
<title>syntax&#45;&gt;tableau&#45;examples</title>
<path fill="none" stroke="black" d="M393.96,-290.07C424.83,-260.19 485.34,-191.78 449.54,-144 442.08,-134.04 379.65,-117.22 330.17,-105.2"/>
<polygon fill="black" stroke="black" points="330.69,-101.72 320.15,-102.79 329.05,-108.53 330.69,-101.72"/>
</g>
<!-- semantics&#45;&gt;interpolation -->
<g id="edge9" class="edge">
<title>semantics&#45;&gt;interpolation</title>
<path fill="none" stroke="black" d="M278.54,-215.7C278.54,-207.98 278.54,-198.71 278.54,-190.11"/>
<polygon fill="black" stroke="black" points="282.05,-190.1 278.54,-180.1 275.05,-190.1 282.05,-190.1"/>
</g>
<!-- semantics&#45;&gt;tableau -->
<g id="edge10" class="edge">
<title>semantics&#45;&gt;tableau</title>
<path fill="none" stroke="black" d="M255.28,-218.33C238.56,-207.78 215.87,-193.48 197.75,-182.05"/>
<polygon fill="black" stroke="black" points="199.6,-179.08 189.28,-176.7 195.87,-185 199.6,-179.08"/>
</g>
<!-- semantics&#45;&gt;modelgraphs -->
<g id="edge11" class="edge">
<title>semantics&#45;&gt;modelgraphs</title>
<path fill="none" stroke="black" d="M243.86,-222.06C206.6,-210.32 147.11,-191.56 105.19,-178.34"/>
<polygon fill="black" stroke="black" points="106.06,-174.94 95.47,-175.27 103.95,-181.62 106.06,-174.94"/>
</g>
<!-- semantics&#45;&gt;examples -->
<g id="edge12" class="edge">
<title>semantics&#45;&gt;examples</title>
<path fill="none" stroke="black" d="M302.99,-218.5C320.59,-208.06 344.53,-193.86 363.78,-182.44"/>
<polygon fill="black" stroke="black" points="365.72,-185.36 372.53,-177.25 362.14,-179.34 365.72,-185.36"/>
</g>
<!-- tableau&#45;&gt;completeness -->
<g id="edge13" class="edge">
<title>tableau&#45;&gt;completeness</title>
<path fill="none" stroke="black" d="M167.07,-143.84C167.4,-124.51 170.64,-93.05 186.54,-72 199.1,-55.38 218.41,-43.43 236.72,-35.14"/>
<polygon fill="black" stroke="black" points="238.33,-38.26 246.17,-31.13 235.59,-31.82 238.33,-38.26"/>
</g>
<!-- tableau&#45;&gt;soundness -->
<g id="edge14" class="edge">
<title>tableau&#45;&gt;soundness</title>
<path fill="none" stroke="black" d="M195.62,-150.14C201.5,-147.99 207.7,-145.84 213.54,-144 273.59,-125.07 289.97,-125.15 350.54,-108 354.08,-107 357.73,-105.94 361.39,-104.87"/>
<polygon fill="black" stroke="black" points="362.47,-108.2 371.06,-101.99 360.47,-101.49 362.47,-108.2"/>
</g>
<!-- tableau&#45;&gt;tableau&#45;examples -->
<g id="edge15" class="edge">
<title>tableau&#45;&gt;tableau&#45;examples</title>
<path fill="none" stroke="black" d="M187.98,-146.83C201.99,-137.13 220.85,-124.06 236.8,-113"/>
<polygon fill="black" stroke="black" points="239.08,-115.68 245.31,-107.1 235.1,-109.92 239.08,-115.68"/>
</g>
<!-- soundness&#45;&gt;completeness -->
<g id="edge16" class="edge">
<title>soundness&#45;&gt;completeness</title>
<path fill="none" stroke="black" d="M381.68,-74.5C364.26,-64.33 340.73,-50.61 321.43,-39.35"/>
<polygon fill="black" stroke="black" points="323.02,-36.23 312.62,-34.21 319.5,-42.27 323.02,-36.23"/>
</g>
<!-- modelgraphs&#45;&gt;completeness -->
<g id="edge17" class="edge">
<title>modelgraphs&#45;&gt;completeness</title>
<path fill="none" stroke="black" d="M73.94,-144.68C94.94,-125.55 131.9,-93.73 167.54,-72 190.69,-57.89 218.26,-45.37 241.02,-36.05"/>
<polygon fill="black" stroke="black" points="242.49,-39.23 250.46,-32.26 239.88,-32.74 242.49,-39.23"/>
</g>
</g>
</svg>
