<?xml version="1.0" encoding="UTF-8" standalone="no"?>
<!DOCTYPE svg PUBLIC "-//W3C//DTD SVG 1.1//EN"
 "http://www.w3.org/Graphics/SVG/1.1/DTD/svg11.dtd">
<!-- Generated by graphviz version 2.43.0 (0)
 -->
<!-- Title: %3 Pages: 1 -->
<svg width="616pt" height="404pt"
 viewBox="0.00 0.00 615.96 404.00" xmlns="http://www.w3.org/2000/svg" xmlns:xlink="http://www.w3.org/1999/xlink">
<g id="graph0" class="graph" transform="scale(1 1) rotate(0) translate(4 400)">
<title>%3</title>
<polygon fill="white" stroke="transparent" points="-4,4 -4,-400 611.96,-400 611.96,4 -4,4"/>
<!-- modelgraphs -->
<g id="node1" class="node">
<title>modelgraphs</title>
<ellipse fill="none" stroke="black" cx="161" cy="-234" rx="56.59" ry="18"/>
<text text-anchor="middle" x="161" y="-230.3" font-family="Times,serif" font-size="14.00">modelgraphs</text>
</g>
<!-- syntax -->
<g id="node2" class="node">
<title>syntax</title>
<ellipse fill="none" stroke="black" cx="273" cy="-378" rx="34" ry="18"/>
<text text-anchor="middle" x="273" y="-374.3" font-family="Times,serif" font-size="14.00">syntax</text>
</g>
<!-- syntax&#45;&gt;modelgraphs -->
<g id="edge1" class="edge">
<title>syntax&#45;&gt;modelgraphs</title>
<path fill="none" stroke="black" d="M253.16,-363.32C239.84,-353.46 222.51,-339.25 210,-324 194.25,-304.82 181.01,-279.83 172.28,-261.22"/>
<polygon fill="black" stroke="black" points="175.35,-259.52 168.02,-251.87 168.98,-262.43 175.35,-259.52"/>
</g>
<!-- semantics -->
<g id="node3" class="node">
<title>semantics</title>
<ellipse fill="none" stroke="black" cx="273" cy="-306" rx="46.29" ry="18"/>
<text text-anchor="middle" x="273" y="-302.3" font-family="Times,serif" font-size="14.00">semantics</text>
</g>
<!-- syntax&#45;&gt;semantics -->
<g id="edge2" class="edge">
<title>syntax&#45;&gt;semantics</title>
<path fill="none" stroke="black" d="M273,-359.7C273,-351.98 273,-342.71 273,-334.11"/>
<polygon fill="black" stroke="black" points="276.5,-334.1 273,-324.1 269.5,-334.1 276.5,-334.1"/>
</g>
<!-- interpolation -->
<g id="node4" class="node">
<title>interpolation</title>
<ellipse fill="none" stroke="black" cx="149" cy="-18" rx="56" ry="18"/>
<text text-anchor="middle" x="149" y="-14.3" font-family="Times,serif" font-size="14.00">interpolation</text>
</g>
<!-- syntax&#45;&gt;interpolation -->
<g id="edge3" class="edge">
<title>syntax&#45;&gt;interpolation</title>
<path fill="none" stroke="black" d="M239.25,-374.9C166.21,-368.35 0,-341.71 0,-235 0,-235 0,-235 0,-161 0,-101.45 63.14,-59.26 107.21,-37.06"/>
<polygon fill="black" stroke="black" points="108.85,-40.16 116.3,-32.63 105.78,-33.86 108.85,-40.16"/>
</g>
<!-- completeness -->
<g id="node5" class="node">
<title>completeness</title>
<ellipse fill="none" stroke="black" cx="149" cy="-90" rx="58.5" ry="18"/>
<text text-anchor="middle" x="149" y="-86.3" font-family="Times,serif" font-size="14.00">completeness</text>
</g>
<!-- syntax&#45;&gt;completeness -->
<g id="edge4" class="edge">
<title>syntax&#45;&gt;completeness</title>
<path fill="none" stroke="black" d="M239.75,-373.62C205.13,-368.47 151.25,-355.64 117,-324 80.32,-290.11 74.45,-264.58 86,-216 94.77,-179.1 116.26,-140.74 131.7,-116.41"/>
<polygon fill="black" stroke="black" points="134.78,-118.1 137.29,-107.8 128.91,-114.29 134.78,-118.1"/>
</g>
<!-- partitions -->
<g id="node6" class="node">
<title>partitions</title>
<ellipse fill="none" stroke="black" cx="318" cy="-90" rx="44.39" ry="18"/>
<text text-anchor="middle" x="318" y="-86.3" font-family="Times,serif" font-size="14.00">partitions</text>
</g>
<!-- syntax&#45;&gt;partitions -->
<g id="edge5" class="edge">
<title>syntax&#45;&gt;partitions</title>
<path fill="none" stroke="black" d="M306.09,-373.59C369.4,-366.58 504.83,-349.06 544,-324 602.26,-286.72 599.65,-249.08 603,-180 603.78,-164.02 613.23,-156.3 603,-144 574.2,-109.35 446.23,-97.24 371.93,-93.09"/>
<polygon fill="black" stroke="black" points="371.99,-89.59 361.82,-92.56 371.62,-96.58 371.99,-89.59"/>
</g>
<!-- soundness -->
<g id="node7" class="node">
<title>soundness</title>
<ellipse fill="none" stroke="black" cx="224" cy="-162" rx="47" ry="18"/>
<text text-anchor="middle" x="224" y="-158.3" font-family="Times,serif" font-size="14.00">soundness</text>
</g>
<!-- syntax&#45;&gt;soundness -->
<g id="edge6" class="edge">
<title>syntax&#45;&gt;soundness</title>
<path fill="none" stroke="black" d="M245.05,-367.54C202.84,-351.49 124.59,-314.45 95,-252 88.15,-237.54 86.09,-229.29 95,-216 111.75,-191.01 142.62,-177.79 169.97,-170.81"/>
<polygon fill="black" stroke="black" points="170.91,-174.18 179.85,-168.51 169.32,-167.37 170.91,-174.18"/>
</g>
<!-- tableau -->
<g id="node8" class="node">
<title>tableau</title>
<ellipse fill="none" stroke="black" cx="272" cy="-234" rx="36.5" ry="18"/>
<text text-anchor="middle" x="272" y="-230.3" font-family="Times,serif" font-size="14.00">tableau</text>
</g>
<!-- syntax&#45;&gt;tableau -->
<g id="edge7" class="edge">
<title>syntax&#45;&gt;tableau</title>
<path fill="none" stroke="black" d="M252.17,-363.5C239.7,-354.11 224.95,-340.35 218,-324 211.74,-309.28 211.81,-302.75 218,-288 223.29,-275.38 233.22,-264.26 243.13,-255.5"/>
<polygon fill="black" stroke="black" points="245.51,-258.08 250.99,-249 241.05,-252.68 245.51,-258.08"/>
</g>
<!-- setsimp -->
<g id="node9" class="node">
<title>setsimp</title>
<ellipse fill="none" stroke="black" cx="376" cy="-306" rx="38.5" ry="18"/>
<text text-anchor="middle" x="376" y="-302.3" font-family="Times,serif" font-size="14.00">setsimp</text>
</g>
<!-- syntax&#45;&gt;setsimp -->
<g id="edge8" class="edge">
<title>syntax&#45;&gt;setsimp</title>
<path fill="none" stroke="black" d="M293.35,-363.17C308.53,-352.86 329.49,-338.61 346.5,-327.05"/>
<polygon fill="black" stroke="black" points="348.68,-329.8 354.99,-321.28 344.75,-324.01 348.68,-329.8"/>
</g>
<!-- vocabulary -->
<g id="node10" class="node">
<title>vocabulary</title>
<ellipse fill="none" stroke="black" cx="521" cy="-234" rx="50.09" ry="18"/>
<text text-anchor="middle" x="521" y="-230.3" font-family="Times,serif" font-size="14.00">vocabulary</text>
</g>
<!-- syntax&#45;&gt;vocabulary -->
<g id="edge9" class="edge">
<title>syntax&#45;&gt;vocabulary</title>
<path fill="none" stroke="black" d="M305.19,-372.09C340.7,-365.53 398.44,-351.4 441,-324 466.87,-307.34 489.58,-280.18 504.13,-260.23"/>
<polygon fill="black" stroke="black" points="507.1,-262.09 510.03,-251.91 501.39,-258.04 507.1,-262.09"/>
</g>
<!-- tableau&#45;examples -->
<g id="node11" class="node">
<title>tableau&#45;examples</title>
<ellipse fill="none" stroke="black" cx="521" cy="-162" rx="73" ry="18"/>
<text text-anchor="middle" x="521" y="-158.3" font-family="Times,serif" font-size="14.00">tableau&#45;examples</text>
</g>
<!-- syntax&#45;&gt;tableau&#45;examples -->
<g id="edge10" class="edge">
<title>syntax&#45;&gt;tableau&#45;examples</title>
<path fill="none" stroke="black" d="M307.02,-376.06C375.4,-372.05 527.43,-351.79 580,-252 587.46,-237.84 586.52,-230.61 580,-216 574.65,-203.99 565.08,-193.57 555.19,-185.22"/>
<polygon fill="black" stroke="black" points="557.28,-182.41 547.26,-178.98 552.95,-187.91 557.28,-182.41"/>
</g>
<!-- examples -->
<g id="node12" class="node">
<title>examples</title>
<ellipse fill="none" stroke="black" cx="409" cy="-234" rx="44.39" ry="18"/>
<text text-anchor="middle" x="409" y="-230.3" font-family="Times,serif" font-size="14.00">examples</text>
</g>
<!-- syntax&#45;&gt;examples -->
<g id="edge11" class="edge">
<title>syntax&#45;&gt;examples</title>
<path fill="none" stroke="black" d="M306.73,-375.74C342.31,-372.4 396.77,-361.09 423,-324 435.92,-305.73 430.03,-280.09 422.31,-261.01"/>
<polygon fill="black" stroke="black" points="425.45,-259.45 418.2,-251.71 419.05,-262.28 425.45,-259.45"/>
</g>
<!-- semantics&#45;&gt;modelgraphs -->
<g id="edge12" class="edge">
<title>semantics&#45;&gt;modelgraphs</title>
<path fill="none" stroke="black" d="M249.52,-290.33C233.57,-280.36 212.23,-267.02 194.51,-255.94"/>
<polygon fill="black" stroke="black" points="195.95,-252.71 185.61,-250.38 192.24,-258.65 195.95,-252.71"/>
</g>
<!-- semantics&#45;&gt;partitions -->
<g id="edge13" class="edge">
<title>semantics&#45;&gt;partitions</title>
<path fill="none" stroke="black" d="M291.07,-289.29C300.76,-279.63 311.76,-266.38 317,-252 333.25,-207.41 328.39,-151.14 323.26,-118.3"/>
<polygon fill="black" stroke="black" points="326.66,-117.39 321.55,-108.11 319.76,-118.55 326.66,-117.39"/>
</g>
<!-- semantics&#45;&gt;tableau -->
<g id="edge14" class="edge">
<title>semantics&#45;&gt;tableau</title>
<path fill="none" stroke="black" d="M272.75,-287.7C272.64,-279.98 272.51,-270.71 272.39,-262.11"/>
<polygon fill="black" stroke="black" points="275.89,-262.05 272.24,-252.1 268.89,-262.15 275.89,-262.05"/>
</g>
<!-- semantics&#45;&gt;examples -->
<g id="edge15" class="edge">
<title>semantics&#45;&gt;examples</title>
<path fill="none" stroke="black" d="M299.87,-291.17C320.96,-280.31 350.51,-265.11 373.54,-253.25"/>
<polygon fill="black" stroke="black" points="375.36,-256.25 382.65,-248.56 372.16,-250.03 375.36,-256.25"/>
</g>
<!-- completeness&#45;&gt;interpolation -->
<g id="edge16" class="edge">
<title>completeness&#45;&gt;interpolation</title>
<path fill="none" stroke="black" d="M149,-71.7C149,-63.98 149,-54.71 149,-46.11"/>
<polygon fill="black" stroke="black" points="152.5,-46.1 149,-36.1 145.5,-46.1 152.5,-46.1"/>
</g>
<!-- partitions&#45;&gt;interpolation -->
<g id="edge17" class="edge">
<title>partitions&#45;&gt;interpolation</title>
<path fill="none" stroke="black" d="M288.18,-76.65C261.33,-65.53 221.57,-49.06 191.42,-36.57"/>
<polygon fill="black" stroke="black" points="192.57,-33.26 181.99,-32.67 189.89,-39.73 192.57,-33.26"/>
</g>
<!-- soundness&#45;&gt;completeness -->
<g id="edge18" class="edge">
<title>soundness&#45;&gt;completeness</title>
<path fill="none" stroke="black" d="M206.98,-145.12C197.24,-136.03 184.85,-124.46 174.02,-114.35"/>
<polygon fill="black" stroke="black" points="176.17,-111.57 166.47,-107.31 171.39,-116.69 176.17,-111.57"/>
</g>
<!-- soundness&#45;&gt;partitions -->
<g id="edge19" class="edge">
<title>soundness&#45;&gt;partitions</title>
<path fill="none" stroke="black" d="M244.86,-145.46C257.97,-135.7 275.07,-122.97 289.43,-112.28"/>
<polygon fill="black" stroke="black" points="291.59,-115.03 297.52,-106.25 287.41,-109.42 291.59,-115.03"/>
</g>
<!-- tableau&#45;&gt;completeness -->
<g id="edge20" class="edge">
<title>tableau&#45;&gt;completeness</title>
<path fill="none" stroke="black" d="M244.28,-222.08C216.99,-210.78 178,-193.02 168,-180 154.5,-162.43 150.09,-137.39 148.86,-118.35"/>
<polygon fill="black" stroke="black" points="152.35,-118.06 148.47,-108.2 145.36,-118.33 152.35,-118.06"/>
</g>
<!-- tableau&#45;&gt;partitions -->
<g id="edge21" class="edge">
<title>tableau&#45;&gt;partitions</title>
<path fill="none" stroke="black" d="M277.46,-216.15C285.3,-191.94 299.84,-147.05 309.21,-118.13"/>
<polygon fill="black" stroke="black" points="312.65,-118.86 312.41,-108.27 305.99,-116.7 312.65,-118.86"/>
</g>
<!-- tableau&#45;&gt;soundness -->
<g id="edge22" class="edge">
<title>tableau&#45;&gt;soundness</title>
<path fill="none" stroke="black" d="M260.87,-216.76C255.01,-208.23 247.71,-197.58 241.16,-188.02"/>
<polygon fill="black" stroke="black" points="243.95,-185.9 235.41,-179.63 238.17,-189.86 243.95,-185.9"/>
</g>
<!-- tableau&#45;&gt;tableau&#45;examples -->
<g id="edge23" class="edge">
<title>tableau&#45;&gt;tableau&#45;examples</title>
<path fill="none" stroke="black" d="M303.03,-224.28C343.49,-212.9 414.97,-192.81 465.01,-178.74"/>
<polygon fill="black" stroke="black" points="466.04,-182.09 474.72,-176.01 464.14,-175.35 466.04,-182.09"/>
</g>
<!-- setsimp&#45;&gt;tableau -->
<g id="edge24" class="edge">
<title>setsimp&#45;&gt;tableau</title>
<path fill="none" stroke="black" d="M354.95,-290.83C339.49,-280.42 318.28,-266.15 301.18,-254.64"/>
<polygon fill="black" stroke="black" points="302.91,-251.59 292.66,-248.91 299,-257.39 302.91,-251.59"/>
</g>
<!-- setsimp&#45;&gt;vocabulary -->
<g id="edge25" class="edge">
<title>setsimp&#45;&gt;vocabulary</title>
<path fill="none" stroke="black" d="M401.92,-292.49C424.56,-281.56 457.7,-265.56 483.27,-253.21"/>
<polygon fill="black" stroke="black" points="484.84,-256.34 492.32,-248.85 481.79,-250.04 484.84,-256.34"/>
</g>
<!-- vocabulary&#45;&gt;partitions -->
<g id="edge26" class="edge">
<title>vocabulary&#45;&gt;partitions</title>
<path fill="none" stroke="black" d="M497.07,-218.07C480.58,-207.65 458.25,-193.29 439,-180 406.55,-157.61 370.23,-130.63 345.93,-112.28"/>
<polygon fill="black" stroke="black" points="347.94,-109.42 337.86,-106.18 343.72,-115 347.94,-109.42"/>
</g>
</g>
</svg>
