<?xml version="1.0" encoding="UTF-8" standalone="no"?>
<!DOCTYPE svg PUBLIC "-//W3C//DTD SVG 1.1//EN"
 "http://www.w3.org/Graphics/SVG/1.1/DTD/svg11.dtd">
<!-- Generated by graphviz version 2.43.0 (0)
 -->
<!-- Title: %3 Pages: 1 -->
<svg width="753pt" height="404pt"
 viewBox="0.00 0.00 753.20 404.00" xmlns="http://www.w3.org/2000/svg" xmlns:xlink="http://www.w3.org/1999/xlink">
<g id="graph0" class="graph" transform="scale(1 1) rotate(0) translate(4 400)">
<title>%3</title>
<polygon fill="white" stroke="transparent" points="-4,4 -4,-400 749.2,-400 749.2,4 -4,4"/>
<!-- syntax -->
<g id="node1" class="node">
<title>syntax</title>
<ellipse fill="none" stroke="black" cx="390" cy="-378" rx="34" ry="18"/>
<text text-anchor="middle" x="390" y="-374.3" font-family="Times,serif" font-size="14.00">syntax</text>
</g>
<!-- interpolation -->
<g id="node2" class="node">
<title>interpolation</title>
<ellipse fill="none" stroke="black" cx="356" cy="-18" rx="56" ry="18"/>
<text text-anchor="middle" x="356" y="-14.3" font-family="Times,serif" font-size="14.00">interpolation</text>
</g>
<!-- syntax&#45;&gt;interpolation -->
<g id="edge1" class="edge">
<title>syntax&#45;&gt;interpolation</title>
<path fill="none" stroke="black" d="M356.32,-375.06C282.06,-370.25 106.96,-355.78 58,-324 18.4,-298.29 0,-282.21 0,-235 0,-235 0,-235 0,-161 0,-97.55 197.55,-49.83 298.33,-29.62"/>
<polygon fill="black" stroke="black" points="299.23,-33.01 308.36,-27.63 297.87,-26.14 299.23,-33.01"/>
</g>
<!-- semantics -->
<g id="node3" class="node">
<title>semantics</title>
<ellipse fill="none" stroke="black" cx="315" cy="-306" rx="46.29" ry="18"/>
<text text-anchor="middle" x="315" y="-302.3" font-family="Times,serif" font-size="14.00">semantics</text>
</g>
<!-- syntax&#45;&gt;semantics -->
<g id="edge2" class="edge">
<title>syntax&#45;&gt;semantics</title>
<path fill="none" stroke="black" d="M373.73,-361.81C363.71,-352.47 350.69,-340.31 339.46,-329.83"/>
<polygon fill="black" stroke="black" points="341.72,-327.15 332.02,-322.89 336.95,-332.27 341.72,-327.15"/>
</g>
<!-- completeness -->
<g id="node4" class="node">
<title>completeness</title>
<ellipse fill="none" stroke="black" cx="400" cy="-90" rx="58.5" ry="18"/>
<text text-anchor="middle" x="400" y="-86.3" font-family="Times,serif" font-size="14.00">completeness</text>
</g>
<!-- syntax&#45;&gt;completeness -->
<g id="edge3" class="edge">
<title>syntax&#45;&gt;completeness</title>
<path fill="none" stroke="black" d="M356.6,-374.22C257.88,-364.66 -20.97,-327.4 57,-216 119.12,-127.24 251.21,-101.28 332.14,-93.83"/>
<polygon fill="black" stroke="black" points="332.56,-97.31 342.23,-92.97 331.97,-90.33 332.56,-97.31"/>
</g>
<!-- partitions -->
<g id="node5" class="node">
<title>partitions</title>
<ellipse fill="none" stroke="black" cx="530" cy="-90" rx="44.39" ry="18"/>
<text text-anchor="middle" x="530" y="-86.3" font-family="Times,serif" font-size="14.00">partitions</text>
</g>
<!-- syntax&#45;&gt;partitions -->
<g id="edge4" class="edge">
<title>syntax&#45;&gt;partitions</title>
<path fill="none" stroke="black" d="M423.25,-374.03C465.95,-369.01 541.19,-356.07 597,-324 674.93,-279.22 704.89,-263.16 739,-180 745.07,-165.2 748.83,-156.63 739,-144 719.9,-119.46 637.55,-104.44 582.1,-96.93"/>
<polygon fill="black" stroke="black" points="582.45,-93.45 572.08,-95.62 581.54,-100.39 582.45,-93.45"/>
</g>
<!-- tableau -->
<g id="node6" class="node">
<title>tableau</title>
<ellipse fill="none" stroke="black" cx="457" cy="-234" rx="36.5" ry="18"/>
<text text-anchor="middle" x="457" y="-230.3" font-family="Times,serif" font-size="14.00">tableau</text>
</g>
<!-- syntax&#45;&gt;tableau -->
<g id="edge5" class="edge">
<title>syntax&#45;&gt;tableau</title>
<path fill="none" stroke="black" d="M397.82,-360.43C409.35,-335.98 431.05,-290 444.72,-261.02"/>
<polygon fill="black" stroke="black" points="447.92,-262.44 449.03,-251.9 441.59,-259.45 447.92,-262.44"/>
</g>
<!-- soundness -->
<g id="node7" class="node">
<title>soundness</title>
<ellipse fill="none" stroke="black" cx="426" cy="-162" rx="47" ry="18"/>
<text text-anchor="middle" x="426" y="-158.3" font-family="Times,serif" font-size="14.00">soundness</text>
</g>
<!-- syntax&#45;&gt;soundness -->
<g id="edge6" class="edge">
<title>syntax&#45;&gt;soundness</title>
<path fill="none" stroke="black" d="M391.4,-359.94C394.01,-330.4 400.33,-267.91 411,-216 412.78,-207.34 415.23,-198.03 417.63,-189.66"/>
<polygon fill="black" stroke="black" points="421,-190.61 420.5,-180.03 414.29,-188.62 421,-190.61"/>
</g>
<!-- modelgraphs -->
<g id="node8" class="node">
<title>modelgraphs</title>
<ellipse fill="none" stroke="black" cx="229" cy="-234" rx="56.59" ry="18"/>
<text text-anchor="middle" x="229" y="-230.3" font-family="Times,serif" font-size="14.00">modelgraphs</text>
</g>
<!-- syntax&#45;&gt;modelgraphs -->
<g id="edge7" class="edge">
<title>syntax&#45;&gt;modelgraphs</title>
<path fill="none" stroke="black" d="M357.97,-371.68C328.73,-365.22 286.18,-351.57 260,-324 244.03,-307.18 236.24,-281.7 232.47,-262.31"/>
<polygon fill="black" stroke="black" points="235.89,-261.52 230.76,-252.25 228.99,-262.7 235.89,-261.52"/>
</g>
<!-- examples -->
<g id="node9" class="node">
<title>examples</title>
<ellipse fill="none" stroke="black" cx="110" cy="-234" rx="44.39" ry="18"/>
<text text-anchor="middle" x="110" y="-230.3" font-family="Times,serif" font-size="14.00">examples</text>
</g>
<!-- syntax&#45;&gt;examples -->
<g id="edge8" class="edge">
<title>syntax&#45;&gt;examples</title>
<path fill="none" stroke="black" d="M360.04,-369.41C328.24,-360.75 277.02,-345 236,-324 199.16,-305.14 160.89,-276.62 136.33,-256.97"/>
<polygon fill="black" stroke="black" points="138.53,-254.25 128.55,-250.68 134.12,-259.69 138.53,-254.25"/>
</g>
<!-- setsimp -->
<g id="node10" class="node">
<title>setsimp</title>
<ellipse fill="none" stroke="black" cx="495" cy="-306" rx="38.5" ry="18"/>
<text text-anchor="middle" x="495" y="-302.3" font-family="Times,serif" font-size="14.00">setsimp</text>
</g>
<!-- syntax&#45;&gt;setsimp -->
<g id="edge9" class="edge">
<title>syntax&#45;&gt;setsimp</title>
<path fill="none" stroke="black" d="M410.25,-363.5C425.77,-353.15 447.45,-338.7 464.99,-327"/>
<polygon fill="black" stroke="black" points="467.36,-329.64 473.74,-321.18 463.47,-323.81 467.36,-329.64"/>
</g>
<!-- vocabulary -->
<g id="node11" class="node">
<title>vocabulary</title>
<ellipse fill="none" stroke="black" cx="562" cy="-234" rx="50.09" ry="18"/>
<text text-anchor="middle" x="562" y="-230.3" font-family="Times,serif" font-size="14.00">vocabulary</text>
</g>
<!-- syntax&#45;&gt;vocabulary -->
<g id="edge10" class="edge">
<title>syntax&#45;&gt;vocabulary</title>
<path fill="none" stroke="black" d="M423.57,-374.73C458.59,-370.51 512.56,-358.44 543,-324 557.83,-307.22 562.06,-281.73 562.89,-262.33"/>
<polygon fill="black" stroke="black" points="566.39,-262.32 563.04,-252.27 559.39,-262.22 566.39,-262.32"/>
</g>
<!-- tableau&#45;examples -->
<g id="node12" class="node">
<title>tableau&#45;examples</title>
<ellipse fill="none" stroke="black" cx="640" cy="-162" rx="73" ry="18"/>
<text text-anchor="middle" x="640" y="-158.3" font-family="Times,serif" font-size="14.00">tableau&#45;examples</text>
</g>
<!-- syntax&#45;&gt;tableau&#45;examples -->
<g id="edge11" class="edge">
<title>syntax&#45;&gt;tableau&#45;examples</title>
<path fill="none" stroke="black" d="M422.9,-373.12C460.15,-367.43 521.3,-354.02 565,-324 598.41,-301.05 603.89,-288.75 621,-252 630.14,-232.36 634.94,-208.23 637.43,-190.06"/>
<polygon fill="black" stroke="black" points="640.9,-190.47 638.64,-180.12 633.95,-189.62 640.9,-190.47"/>
</g>
<!-- semantics&#45;&gt;interpolation -->
<g id="edge12" class="edge">
<title>semantics&#45;&gt;interpolation</title>
<path fill="none" stroke="black" d="M314.21,-287.72C312.88,-248.61 312.01,-150.62 332,-72 334.29,-62.99 338.03,-53.62 341.89,-45.3"/>
<polygon fill="black" stroke="black" points="345.14,-46.62 346.39,-36.1 338.85,-43.55 345.14,-46.62"/>
</g>
<!-- semantics&#45;&gt;partitions -->
<g id="edge13" class="edge">
<title>semantics&#45;&gt;partitions</title>
<path fill="none" stroke="black" d="M319.89,-287.93C331.29,-248.67 359.4,-154.5 370,-144 378.43,-135.65 440.43,-116.6 484.72,-103.76"/>
<polygon fill="black" stroke="black" points="485.79,-107.09 494.43,-100.96 483.86,-100.37 485.79,-107.09"/>
</g>
<!-- semantics&#45;&gt;tableau -->
<g id="edge14" class="edge">
<title>semantics&#45;&gt;tableau</title>
<path fill="none" stroke="black" d="M342.38,-291.5C365.39,-280.16 398.38,-263.9 423.07,-251.73"/>
<polygon fill="black" stroke="black" points="424.66,-254.84 432.08,-247.28 421.57,-248.57 424.66,-254.84"/>
</g>
<!-- semantics&#45;&gt;modelgraphs -->
<g id="edge15" class="edge">
<title>semantics&#45;&gt;modelgraphs</title>
<path fill="none" stroke="black" d="M295.91,-289.46C284.39,-280.08 269.49,-267.96 256.69,-257.54"/>
<polygon fill="black" stroke="black" points="258.59,-254.58 248.63,-250.98 254.18,-260 258.59,-254.58"/>
</g>
<!-- semantics&#45;&gt;examples -->
<g id="edge16" class="edge">
<title>semantics&#45;&gt;examples</title>
<path fill="none" stroke="black" d="M281.15,-293.44C245.97,-281.43 190.82,-262.6 152.68,-249.57"/>
<polygon fill="black" stroke="black" points="153.48,-246.15 142.88,-246.23 151.22,-252.77 153.48,-246.15"/>
</g>
<!-- completeness&#45;&gt;interpolation -->
<g id="edge17" class="edge">
<title>completeness&#45;&gt;interpolation</title>
<path fill="none" stroke="black" d="M389.35,-72.05C384.16,-63.8 377.81,-53.7 372.05,-44.54"/>
<polygon fill="black" stroke="black" points="374.84,-42.39 366.55,-35.79 368.91,-46.12 374.84,-42.39"/>
</g>
<!-- partitions&#45;&gt;interpolation -->
<g id="edge18" class="edge">
<title>partitions&#45;&gt;interpolation</title>
<path fill="none" stroke="black" d="M499.69,-76.81C471.81,-65.59 430.16,-48.84 398.87,-36.25"/>
<polygon fill="black" stroke="black" points="400.11,-32.97 389.52,-32.49 397.49,-39.47 400.11,-32.97"/>
</g>
<!-- tableau&#45;&gt;completeness -->
<g id="edge19" class="edge">
<title>tableau&#45;&gt;completeness</title>
<path fill="none" stroke="black" d="M468.61,-216.74C480.27,-198.24 494.81,-167.54 482,-144 473.81,-128.96 459.32,-117.53 444.76,-109.22"/>
<polygon fill="black" stroke="black" points="446.23,-106.03 435.75,-104.43 442.95,-112.21 446.23,-106.03"/>
</g>
<!-- tableau&#45;&gt;partitions -->
<g id="edge20" class="edge">
<title>tableau&#45;&gt;partitions</title>
<path fill="none" stroke="black" d="M471.34,-217.22C479.94,-207.13 490.61,-193.46 498,-180 508.88,-160.17 517.31,-135.92 522.79,-117.74"/>
<polygon fill="black" stroke="black" points="526.17,-118.65 525.59,-108.07 519.44,-116.7 526.17,-118.65"/>
</g>
<!-- tableau&#45;&gt;soundness -->
<g id="edge21" class="edge">
<title>tableau&#45;&gt;soundness</title>
<path fill="none" stroke="black" d="M449.5,-216.05C445.92,-207.97 441.55,-198.12 437.56,-189.11"/>
<polygon fill="black" stroke="black" points="440.68,-187.52 433.44,-179.79 434.28,-190.35 440.68,-187.52"/>
</g>
<!-- tableau&#45;&gt;tableau&#45;examples -->
<g id="edge22" class="edge">
<title>tableau&#45;&gt;tableau&#45;examples</title>
<path fill="none" stroke="black" d="M485.19,-222.22C513.75,-211.29 558.46,-194.19 592.5,-181.17"/>
<polygon fill="black" stroke="black" points="594.15,-184.28 602.24,-177.44 591.65,-177.75 594.15,-184.28"/>
</g>
<!-- soundness&#45;&gt;completeness -->
<g id="edge23" class="edge">
<title>soundness&#45;&gt;completeness</title>
<path fill="none" stroke="black" d="M419.71,-144.05C416.78,-136.18 413.23,-126.62 409.95,-117.79"/>
<polygon fill="black" stroke="black" points="413.18,-116.43 406.42,-108.28 406.62,-118.87 413.18,-116.43"/>
</g>
<!-- soundness&#45;&gt;partitions -->
<g id="edge24" class="edge">
<title>soundness&#45;&gt;partitions</title>
<path fill="none" stroke="black" d="M448.31,-145.98C463.22,-135.95 483.02,-122.62 499.39,-111.6"/>
<polygon fill="black" stroke="black" points="501.74,-114.24 508.08,-105.75 497.83,-108.43 501.74,-114.24"/>
</g>
<!-- modelgraphs&#45;&gt;completeness -->
<g id="edge25" class="edge">
<title>modelgraphs&#45;&gt;completeness</title>
<path fill="none" stroke="black" d="M248.28,-216.99C278.69,-191.74 337.88,-142.59 372.66,-113.71"/>
<polygon fill="black" stroke="black" points="375.07,-116.25 380.52,-107.17 370.6,-110.87 375.07,-116.25"/>
</g>
<!-- setsimp&#45;&gt;tableau -->
<g id="edge26" class="edge">
<title>setsimp&#45;&gt;tableau</title>
<path fill="none" stroke="black" d="M485.99,-288.41C481.45,-280.04 475.84,-269.71 470.77,-260.37"/>
<polygon fill="black" stroke="black" points="473.79,-258.59 465.94,-251.47 467.64,-261.93 473.79,-258.59"/>
</g>
<!-- setsimp&#45;&gt;vocabulary -->
<g id="edge27" class="edge">
<title>setsimp&#45;&gt;vocabulary</title>
<path fill="none" stroke="black" d="M510.2,-289.12C518.82,-280.12 529.76,-268.68 539.37,-258.65"/>
<polygon fill="black" stroke="black" points="542.01,-260.95 546.39,-251.31 536.95,-256.11 542.01,-260.95"/>
</g>
<!-- vocabulary&#45;&gt;partitions -->
<g id="edge28" class="edge">
<title>vocabulary&#45;&gt;partitions</title>
<path fill="none" stroke="black" d="M607.05,-225.79C665.53,-214.46 756.27,-189.02 722,-144 705,-121.67 632.37,-106.35 581.49,-98.13"/>
<polygon fill="black" stroke="black" points="581.73,-94.62 571.31,-96.53 580.64,-101.54 581.73,-94.62"/>
</g>
</g>
</svg>
