<?xml version="1.0" encoding="UTF-8" standalone="no"?>
<!DOCTYPE svg PUBLIC "-//W3C//DTD SVG 1.1//EN"
 "http://www.w3.org/Graphics/SVG/1.1/DTD/svg11.dtd">
<!-- Generated by graphviz version 2.43.0 (0)
 -->
<!-- Title: G Pages: 1 -->
<svg width="605pt" height="332pt"
 viewBox="0.00 0.00 605.07 332.00" xmlns="http://www.w3.org/2000/svg" xmlns:xlink="http://www.w3.org/1999/xlink">
<g id="graph0" class="graph" transform="scale(1 1) rotate(0) translate(4 328)">
<title>G</title>
<polygon fill="white" stroke="transparent" points="-4,4 -4,-328 601.07,-328 601.07,4 -4,4"/>
<!-- completeness -->
<g id="node1" class="node">
<title>completeness</title>
<ellipse fill="none" stroke="black" cx="428.79" cy="-306" rx="58.49" ry="18"/>
<text text-anchor="middle" x="428.79" y="-302.3" font-family="Times,serif" font-size="14.00">completeness</text>
</g>
<!-- syntax -->
<g id="node2" class="node">
<title>syntax</title>
<ellipse fill="none" stroke="black" cx="280.79" cy="-18" rx="33.6" ry="18"/>
<text text-anchor="middle" x="280.79" y="-14.3" font-family="Times,serif" font-size="14.00">syntax</text>
</g>
<!-- completeness&#45;&gt;syntax -->
<g id="edge1" class="edge">
<title>completeness&#45;&gt;syntax</title>
<path fill="none" stroke="black" d="M462.57,-291.18C520.27,-265.49 627.89,-207.19 587.79,-144 530.53,-53.76 394.78,-28.67 324.56,-21.69"/>
<polygon fill="black" stroke="black" points="324.56,-18.17 314.28,-20.75 323.92,-25.14 324.56,-18.17"/>
</g>
<!-- tableau -->
<g id="node3" class="node">
<title>tableau</title>
<ellipse fill="none" stroke="black" cx="174.79" cy="-162" rx="36.29" ry="18"/>
<text text-anchor="middle" x="174.79" y="-158.3" font-family="Times,serif" font-size="14.00">tableau</text>
</g>
<!-- completeness&#45;&gt;tableau -->
<g id="edge2" class="edge">
<title>completeness&#45;&gt;tableau</title>
<path fill="none" stroke="black" d="M401.61,-289.8C354.38,-263.4 257.4,-209.18 206.93,-180.96"/>
<polygon fill="black" stroke="black" points="208.5,-177.83 198.06,-176.01 205.08,-183.94 208.5,-177.83"/>
</g>
<!-- soundness -->
<g id="node4" class="node">
<title>soundness</title>
<ellipse fill="none" stroke="black" cx="210.79" cy="-234" rx="46.59" ry="18"/>
<text text-anchor="middle" x="210.79" y="-230.3" font-family="Times,serif" font-size="14.00">soundness</text>
</g>
<!-- completeness&#45;&gt;soundness -->
<g id="edge3" class="edge">
<title>completeness&#45;&gt;soundness</title>
<path fill="none" stroke="black" d="M389.82,-292.49C352,-280.34 294.67,-261.93 255.12,-249.23"/>
<polygon fill="black" stroke="black" points="256.07,-245.86 245.48,-246.14 253.93,-252.53 256.07,-245.86"/>
</g>
<!-- modelgraphs -->
<g id="node5" class="node">
<title>modelgraphs</title>
<ellipse fill="none" stroke="black" cx="521.79" cy="-162" rx="56.59" ry="18"/>
<text text-anchor="middle" x="521.79" y="-158.3" font-family="Times,serif" font-size="14.00">modelgraphs</text>
</g>
<!-- completeness&#45;&gt;modelgraphs -->
<g id="edge4" class="edge">
<title>completeness&#45;&gt;modelgraphs</title>
<path fill="none" stroke="black" d="M439.83,-288.15C455.98,-263.49 486.18,-217.37 505.07,-188.53"/>
<polygon fill="black" stroke="black" points="508.22,-190.11 510.77,-179.82 502.37,-186.27 508.22,-190.11"/>
</g>
<!-- tableau&#45;&gt;syntax -->
<g id="edge16" class="edge">
<title>tableau&#45;&gt;syntax</title>
<path fill="none" stroke="black" d="M186.75,-144.99C205.2,-120.27 240.74,-72.65 262.46,-43.56"/>
<polygon fill="black" stroke="black" points="265.54,-45.28 268.72,-35.17 259.93,-41.09 265.54,-45.28"/>
</g>
<!-- semantics -->
<g id="node7" class="node">
<title>semantics</title>
<ellipse fill="none" stroke="black" cx="317.79" cy="-90" rx="46.29" ry="18"/>
<text text-anchor="middle" x="317.79" y="-86.3" font-family="Times,serif" font-size="14.00">semantics</text>
</g>
<!-- tableau&#45;&gt;semantics -->
<g id="edge17" class="edge">
<title>tableau&#45;&gt;semantics</title>
<path fill="none" stroke="black" d="M199.7,-148.81C222.22,-137.78 255.67,-121.41 281.22,-108.9"/>
<polygon fill="black" stroke="black" points="282.8,-112.03 290.24,-104.49 279.72,-105.74 282.8,-112.03"/>
</g>
<!-- soundness&#45;&gt;syntax -->
<g id="edge12" class="edge">
<title>soundness&#45;&gt;syntax</title>
<path fill="none" stroke="black" d="M178.38,-220.89C160.59,-212.38 140.1,-199.07 129.79,-180 122.18,-165.93 123.24,-158.6 129.79,-144 153.06,-92.2 210.14,-54.82 247.08,-35.07"/>
<polygon fill="black" stroke="black" points="248.75,-38.15 256,-30.43 245.52,-31.94 248.75,-38.15"/>
</g>
<!-- soundness&#45;&gt;tableau -->
<g id="edge13" class="edge">
<title>soundness&#45;&gt;tableau</title>
<path fill="none" stroke="black" d="M202.08,-216.05C197.88,-207.89 192.75,-197.91 188.07,-188.82"/>
<polygon fill="black" stroke="black" points="191.11,-187.08 183.43,-179.79 184.89,-190.28 191.11,-187.08"/>
</g>
<!-- modelgraphs&#45;&gt;syntax -->
<g id="edge9" class="edge">
<title>modelgraphs&#45;&gt;syntax</title>
<path fill="none" stroke="black" d="M501.22,-145.07C476.51,-126.32 433.42,-94.85 393.79,-72 368.66,-57.51 338.91,-43.68 316.25,-33.78"/>
<polygon fill="black" stroke="black" points="317.57,-30.54 307,-29.79 314.8,-36.97 317.57,-30.54"/>
</g>
<!-- modelgraphs&#45;&gt;semantics -->
<g id="edge10" class="edge">
<title>modelgraphs&#45;&gt;semantics</title>
<path fill="none" stroke="black" d="M484.85,-148.32C449.96,-136.35 397.65,-118.4 360.88,-105.78"/>
<polygon fill="black" stroke="black" points="362.01,-102.47 351.42,-102.54 359.74,-109.09 362.01,-102.47"/>
</g>
<!-- examples -->
<g id="node6" class="node">
<title>examples</title>
<ellipse fill="none" stroke="black" cx="273.79" cy="-162" rx="44.39" ry="18"/>
<text text-anchor="middle" x="273.79" y="-158.3" font-family="Times,serif" font-size="14.00">examples</text>
</g>
<!-- examples&#45;&gt;syntax -->
<g id="edge5" class="edge">
<title>examples&#45;&gt;syntax</title>
<path fill="none" stroke="black" d="M268.77,-143.88C264.18,-125.91 258.68,-96.88 262.79,-72 264.26,-63.14 267.01,-53.77 269.93,-45.41"/>
<polygon fill="black" stroke="black" points="273.29,-46.41 273.5,-35.82 266.73,-43.97 273.29,-46.41"/>
</g>
<!-- examples&#45;&gt;semantics -->
<g id="edge6" class="edge">
<title>examples&#45;&gt;semantics</title>
<path fill="none" stroke="black" d="M284.22,-144.41C289.46,-136.08 295.92,-125.8 301.77,-116.49"/>
<polygon fill="black" stroke="black" points="304.78,-118.29 307.14,-107.96 298.85,-114.56 304.78,-118.29"/>
</g>
<!-- semantics&#45;&gt;syntax -->
<g id="edge11" class="edge">
<title>semantics&#45;&gt;syntax</title>
<path fill="none" stroke="black" d="M308.84,-72.05C304.52,-63.89 299.25,-53.91 294.44,-44.82"/>
<polygon fill="black" stroke="black" points="297.44,-42.99 289.67,-35.79 291.25,-46.27 297.44,-42.99"/>
</g>
<!-- interpolation -->
<g id="node8" class="node">
<title>interpolation</title>
<ellipse fill="none" stroke="black" cx="391.79" cy="-162" rx="55.79" ry="18"/>
<text text-anchor="middle" x="391.79" y="-158.3" font-family="Times,serif" font-size="14.00">interpolation</text>
</g>
<!-- interpolation&#45;&gt;syntax -->
<g id="edge7" class="edge">
<title>interpolation&#45;&gt;syntax</title>
<path fill="none" stroke="black" d="M392.13,-143.94C391.68,-124.71 388.32,-93.33 372.79,-72 359.43,-53.64 337.62,-40.68 318.6,-32.17"/>
<polygon fill="black" stroke="black" points="319.82,-28.89 309.24,-28.23 317.1,-35.34 319.82,-28.89"/>
</g>
<!-- interpolation&#45;&gt;semantics -->
<g id="edge8" class="edge">
<title>interpolation&#45;&gt;semantics</title>
<path fill="none" stroke="black" d="M374.63,-144.76C364.94,-135.6 352.68,-124 342.02,-113.92"/>
<polygon fill="black" stroke="black" points="344.28,-111.24 334.61,-106.91 339.47,-116.32 344.28,-111.24"/>
</g>
<!-- tableau&#45;examples -->
<g id="node9" class="node">
<title>tableau&#45;examples</title>
<ellipse fill="none" stroke="black" cx="72.79" cy="-234" rx="72.59" ry="18"/>
<text text-anchor="middle" x="72.79" y="-230.3" font-family="Times,serif" font-size="14.00">tableau&#45;examples</text>
</g>
<!-- tableau&#45;examples&#45;&gt;syntax -->
<g id="edge14" class="edge">
<title>tableau&#45;examples&#45;&gt;syntax</title>
<path fill="none" stroke="black" d="M76.57,-215.99C84.59,-183.67 106.23,-112.96 149.79,-72 174.71,-48.58 211.33,-34.95 239.52,-27.39"/>
<polygon fill="black" stroke="black" points="240.65,-30.72 249.49,-24.88 238.93,-23.93 240.65,-30.72"/>
</g>
<!-- tableau&#45;examples&#45;&gt;tableau -->
<g id="edge15" class="edge">
<title>tableau&#45;examples&#45;&gt;tableau</title>
<path fill="none" stroke="black" d="M96.19,-216.94C110.98,-206.79 130.2,-193.6 145.93,-182.81"/>
<polygon fill="black" stroke="black" points="148,-185.63 154.26,-177.09 144.04,-179.86 148,-185.63"/>
</g>
</g>
</svg>
